<svg xmlns="http://www.w3.org/2000/svg" width="1024" height="1024" viewBox="0 0 1024 1024" fill="none">
  <path fill="#ffffff" fill-rule="evenodd" d="M512 64c-106.08 0-192 85.92-192 192v224c0 106.08 85.92 192 192 192s192-85.92 192-192V256c0-106.08-85.92-192-192-192Zm-80 272v-48c0-44.16 35.84-80 80-80s80 35.84 80 80v48h-32v-48c0-26.56-21.44-48-48-48s-48 21.44-48 48v48h-32Zm-32 32c-17.6 0-32 14.4-32 32v112c0 17.6 14.4 32 32 32h224c17.6 0 32-14.4 32-32V400c0-17.6-14.4-32-32-32H400Zm152 72c0 16.48-9.92 30.72-24 36.96V512h-32v-35.04c-14.08-6.24-24-20.48-24-36.96 0-22.08 17.92-40 40-40s40 17.92 40 40Z"/>
  <path fill="#ffffff" d="M192 448c0-26.56 21.44-48 48-48s48 21.44 48 48v32c0 123.68 100.32 224 224 224s224-100.32 224-224v-32c0-26.56 21.44-48 48-48s48 21.44 48 48v32c0 159.04-116.48 290.88-268.8 315.2V864H704c26.56 0 48 21.44 48 48s-21.44 48-48 48H320c-26.56 0-48-21.44-48-48s21.44-48 48-48h140.8v-68.8C308.48 770.88 192 639.04 192 480v-32Z"/>
</svg>
