<svg xmlns="http://www.w3.org/2000/svg" width="64" height="64" viewBox="0 0 64 64" fill="none">
  <path fill="#000000" fill-rule="evenodd" d="M32 4c-6.63 0-12 5.37-12 12v14c0 6.63 5.37 12 12 12s12-5.37 12-12V16c0-6.63-5.37-12-12-12Zm-5 17v-3c0-2.76 2.24-5 5-5s5 2.24 5 5v3h-2v-3c0-1.66-1.34-3-3-3s-3 1.34-3 3v3h-2Zm-2 2c-1.1 0-2 .9-2 2v7c0 1.1.9 2 2 2h14c1.1 0 2-.9 2-2v-7c0-1.1-.9-2-2-2H25Zm9.5 4.5c0 1.03-.62 1.92-1.5 2.31V32h-2v-2.19c-.88-.39-1.5-1.28-1.5-2.31 0-1.38 1.12-2.5 2.5-2.5s2.5 1.12 2.5 2.5Z"/>
  <path fill="#000000" d="M12 28c0-1.66 1.34-3 3-3s3 1.34 3 3v2c0 7.73 6.27 14 14 14s14-6.27 14-14v-2c0-1.66 1.34-3 3-3s3 1.34 3 3v2c0 9.94-7.28 18.18-16.8 19.7V54H44c1.66 0 3 1.34 3 3s-1.34 3-3 3H20c-1.66 0-3-1.34-3-3s1.34-3 3-3h8.8v-4.3C19.28 48.18 12 39.94 12 30v-2Z"/>
</svg>
